<?xml version="1.0"?>
<svg xmlns="http://www.w3.org/2000/svg" xmlns:xlink="http://www.w3.org/1999/xlink" xmlns:svgjs="http://svgjs.com/svgjs" version="1.1" width="512" height="512" x="0" y="0" viewBox="0 0 512 512" style="enable-background:new 0 0 512 512" xml:space="preserve" class=""><circle r="256" cx="256" cy="256" fill="#4a96d1" shape="circle"/><g transform="matrix(0.7,0,0,0.7,76.80000228881838,76.7996967315674)"><g xmlns="http://www.w3.org/2000/svg"><path d="m424.472 0h-94.712c-4.149 0-7.513 3.364-7.513 7.513s3.364 7.513 7.513 7.513h94.712c2.288 0 4.149 1.861 4.149 4.148v402.541c0 2.287-1.861 4.148-4.149 4.148h-296.814v-410.837h166.315c4.149 0 7.513-3.364 7.513-7.513s-3.363-7.513-7.513-7.513h-188.954c-20.217 0-36.665 16.448-36.665 36.665v307.717c0 4.149 3.364 7.513 7.513 7.513s7.513-3.364 7.513-7.513v-307.717c0-11.932 9.707-21.64 21.64-21.64h7.613v410.837c-10.069-.197-20.791 3.031-29.253 10.405v-56.157c0-4.149-3.364-7.513-7.513-7.513s-7.513 3.364-7.513 7.513v88.82c0 23.748 19.32 43.068 43.068 43.068h236.199c4.149 0 7.513-3.364 7.513-7.513s-3.364-7.513-7.513-7.513h-236.199c-15.463 0-28.042-12.58-28.042-28.043-.369-13.888 12.493-28.458 28.042-28.043h293.33c-5.528 8.149-8.592 17.866-8.592 28.043 0 10.152 3.003 19.834 8.592 28.043h-20.162c-4.149 0-7.513 3.364-7.513 7.513s3.364 7.513 7.513 7.513h29.45c4.33 0 8.192-2.581 9.838-6.575 1.66-4.025.73-8.615-2.369-11.694-6.657-6.615-10.324-15.422-10.324-24.8 0-11.137 5.253-21.488 14.148-28.086 10.172-.455 18.313-8.849 18.313-19.13v-402.539c0-10.573-8.601-19.174-19.174-19.174z" fill="#000000" data-original="#000000" style=""/><path d="m264.55 165.257c-12.929 0-23.448 10.519-23.448 23.449s10.519 23.449 23.448 23.449c12.93 0 23.449-10.519 23.449-23.449-.001-12.93-10.52-23.449-23.449-23.449zm0 31.872c-4.644 0-8.423-3.778-8.423-8.423s3.778-8.423 8.423-8.423 8.423 3.778 8.423 8.423c0 4.644-3.779 8.423-8.423 8.423z" fill="#000000" data-original="#000000" style=""/><path d="m377.012 139.3c0-12.93-10.519-23.449-23.449-23.449-4.725 0-9.126 1.41-12.811 3.824-9.28-3.738-20.846-4.708-33.995-3.058-9.585-22.817-24.275-36.1-42.207-36.1-17.946 0-32.646 13.305-42.23 36.156-12.511-1.579-23.592-.805-32.579 2.47-3.505-2.088-7.596-3.292-11.964-3.292-12.929 0-23.448 10.519-23.448 23.449 0 8.57 4.624 16.078 11.506 20.168 1.519 9.662 6.385 19.857 14.172 30.099-14.789 19.532-18.889 38.733-10.028 54.188 7.448 12.99 21.804 19.415 40.639 19.415 3.715 0 7.618-.272 11.663-.771 4.953 11.861 11.306 21.201 18.854 27.405-.021.407-.032.816-.032 1.228 0 12.93 10.519 23.449 23.448 23.449 12.93 0 23.449-10.519 23.449-23.449 0-.412-.011-.822-.032-1.228 7.548-6.204 13.901-15.543 18.854-27.404 4.044.499 7.947.771 11.662.77 18.831-.002 33.192-6.427 40.639-19.415 8.861-15.455 4.762-34.656-10.028-54.188 7.448-9.796 12.239-19.551 13.97-28.836 8.207-3.654 13.947-11.882 13.947-21.431zm-23.448-8.423c4.645 0 8.423 3.778 8.423 8.423s-3.778 8.423-8.423 8.423-8.423-3.778-8.423-8.423 3.778-8.423 8.423-8.423zm-89.014-35.333c10.809 0 20.214 8.851 27.126 23.941-8.619 2.157-17.723 5.257-27.16 9.272-9.398-3.98-18.495-7.069-27.114-9.22 6.913-15.122 16.327-23.993 27.148-23.993zm39.429 93.987c0 7.707-.347 15.154-1.001 22.264-5.843 4.103-12.129 8.107-18.816 11.941-6.658 3.817-13.215 7.185-19.612 10.126-6.397-2.942-12.954-6.309-19.612-10.126-6.687-3.834-12.973-7.838-18.816-11.941-.654-7.111-1.001-14.557-1.001-22.265 0-7.747.337-15.19.978-22.262 5.824-4.081 12.108-8.084 18.839-11.944 6.625-3.798 13.198-7.173 19.638-10.124 6.411 2.95 12.965 6.327 19.586 10.124 6.732 3.86 13.016 7.863 18.84 11.944.641 7.073.977 14.517.977 22.263zm14.846-10c3.844 3.322 7.344 6.655 10.502 9.971-3.166 3.325-6.674 6.661-10.502 9.977.116-3.262.18-6.576.18-9.947 0-3.394-.063-6.726-.18-10.001zm-18.653 52.14c-.944 4.824-2.055 9.395-3.318 13.684-4.373-1.045-8.922-2.36-13.63-3.969 2.785-1.472 5.584-2.994 8.411-4.614 2.924-1.676 5.766-3.379 8.537-5.101zm-54.297 9.715c-4.708 1.608-9.257 2.923-13.63 3.969-1.263-4.288-2.373-8.86-3.317-13.684 2.771 1.722 5.613 3.425 8.536 5.101 2.826 1.621 5.626 3.142 8.411 4.614zm-35.6-41.907c-3.828-3.316-7.336-6.652-10.502-9.977 3.159-3.316 6.658-6.649 10.502-9.971-.117 3.275-.18 6.607-.18 10 0 3.371.064 6.685.18 9.948zm18.601-52.057c.945-4.859 2.056-9.45 3.32-13.742 4.389 1.048 8.954 2.384 13.657 3.991-2.779 1.47-5.576 3.007-8.389 4.62-2.945 1.688-5.805 3.4-8.588 5.131zm62.759-5.131c-2.793-1.601-5.573-3.126-8.339-4.587 4.691-1.595 9.245-2.917 13.626-3.962 1.256 4.275 2.361 8.845 3.302 13.681-2.783-1.732-5.644-3.444-8.589-5.132zm-113.858-11.414c4.645 0 8.423 3.778 8.423 8.423s-3.778 8.423-8.423 8.423c-4.644 0-8.423-3.778-8.423-8.423s3.779-8.423 8.423-8.423zm4.154 31.496c10.954-1.967 19.295-11.561 19.295-23.073 0-2.617-.438-5.133-1.232-7.485 5.057-1.042 10.884-1.241 17.301-.656-2.392 8.425-4.226 17.747-5.445 27.841-8.287 6.179-15.567 12.514-21.753 18.886-3.802-5.354-6.569-10.573-8.166-15.513zm1.082 73.908c-5.333-9.301-2.426-21.736 7.042-35.113 6.221 6.395 13.516 12.735 21.79 18.899 1.21 10.056 3.035 19.381 5.423 27.834-16.522 1.507-28.879-2.245-34.255-11.62zm81.537 63.174c-4.644 0-8.423-3.778-8.423-8.423s3.778-8.423 8.423-8.423 8.423 3.778 8.423 8.423-3.779 8.423-8.423 8.423zm17.175-24.365c-4.285-4.613-10.397-7.507-17.175-7.507s-12.889 2.894-17.174 7.507c-3.704-3.969-7.032-9.221-9.917-15.544 8.569-2.135 17.646-5.217 27.091-9.231 9.446 4.014 18.523 7.097 27.092 9.232-2.886 6.323-6.214 11.575-9.917 15.543zm64.362-38.809c-5.375 9.375-17.732 13.127-34.256 11.62 2.388-8.454 4.213-17.779 5.423-27.835 8.274-6.165 15.569-12.504 21.79-18.899 9.469 13.378 12.375 25.813 7.043 35.114zm-28.836-77.282c-1.216-10.075-3.046-19.38-5.432-27.793 7.335-.681 13.882-.34 19.363 1.095-.693 2.211-1.067 4.562-1.067 6.998 0 10.765 7.294 19.852 17.197 22.596-1.57 5.082-4.385 10.463-8.308 15.989-6.186-6.371-13.466-12.706-21.753-18.885z" fill="#000000" data-original="#000000" style=""/><path d="m338.322 338.287c0-4.149-3.364-7.513-7.513-7.513h-131.418c-4.149 0-7.513 3.364-7.513 7.513s3.364 7.513 7.513 7.513h131.419c4.149-.001 7.512-3.364 7.512-7.513z" fill="#000000" data-original="#000000" style=""/><path d="m217.77 362.092c-4.149 0-7.513 3.364-7.513 7.513s3.364 7.513 7.513 7.513h94.661c4.149 0 7.513-3.364 7.513-7.513s-3.364-7.513-7.513-7.513z" fill="#000000" data-original="#000000" style=""/></g></g></svg>
